<svg width="64" height="64" viewBox="0 0 64 64" fill="none" xmlns="http://www.w3.org/2000/svg">
<path d="M58 10H6C4.89375 10 4 10.8937 4 12V52C4 53.1063 4.89375 54 6 54H58C59.1063 54 60 53.1063 60 52V12C60 10.8937 59.1063 10 58 10ZM52.95 16.8062L33.2313 32.15C32.7438 32.5313 32.0625 32.5313 31.575 32.15L11.85 16.8062C11.7756 16.7489 11.7211 16.6697 11.694 16.5797C11.667 16.4898 11.6687 16.3936 11.699 16.3047C11.7293 16.2158 11.7867 16.1387 11.8631 16.084C11.9395 16.0294 12.0311 16 12.125 16H52.675C52.7689 16 52.8605 16.0294 52.9369 16.084C53.0133 16.1387 53.0707 16.2158 53.101 16.3047C53.1313 16.3936 53.133 16.4898 53.106 16.5797C53.0789 16.6697 53.0244 16.7489 52.95 16.8062Z" fill="#20374F"/>
</svg>
