<svg width="64" height="64" viewBox="0 0 64 64" fill="none" xmlns="http://www.w3.org/2000/svg">
<path d="M57.6875 17.7246C56.8497 15.7848 55.6418 14.027 54.1312 12.5496C52.6196 11.0677 50.8373 9.89012 48.8812 9.08081C46.853 8.23826 44.6776 7.807 42.4813 7.81206C39.4 7.81206 36.3937 8.65581 33.7812 10.2496C33.1562 10.6308 32.5625 11.0496 32 11.5058C31.4375 11.0496 30.8438 10.6308 30.2188 10.2496C27.6063 8.65581 24.6 7.81206 21.5187 7.81206C19.3 7.81206 17.15 8.23706 15.1187 9.08081C13.1562 9.89331 11.3875 11.0621 9.86875 12.5496C8.35623 14.0253 7.14799 15.7835 6.3125 17.7246C5.44375 19.7433 5 21.8871 5 24.0933C5 26.1746 5.425 28.3433 6.26875 30.5496C6.975 32.3933 7.9875 34.3058 9.28125 36.2371C11.3313 39.2933 14.15 42.4808 17.65 45.7121C23.45 51.0683 29.1938 54.7683 29.4375 54.9183L30.9188 55.8683C31.575 56.2871 32.4188 56.2871 33.075 55.8683L34.5563 54.9183C34.8 54.7621 40.5375 51.0683 46.3438 45.7121C49.8438 42.4808 52.6625 39.2933 54.7125 36.2371C56.0063 34.3058 57.025 32.3933 57.725 30.5496C58.5687 28.3433 58.9938 26.1746 58.9938 24.0933C59 21.8871 58.5563 19.7433 57.6875 17.7246Z" fill="#FE6B12"/>
</svg>
