<svg width="52" height="64" viewBox="0 0 52 64" fill="none" xmlns="http://www.w3.org/2000/svg">
<path d="M48.8571 3.42857H41.1429V0.571429C41.1429 0.257143 40.8857 0 40.5714 0H36.5714C36.2571 0 36 0.257143 36 0.571429V3.42857H25.1429V0.571429C25.1429 0.257143 24.8857 0 24.5714 0H20.5714C20.2571 0 20 0.257143 20 0.571429V3.42857H12.2857C11.0214 3.42857 10 4.45 10 5.71429V14.2857H3.14286C1.87858 14.2857 0.857147 15.3071 0.857147 16.5714V61.7143C0.857147 62.9786 1.87858 64 3.14286 64H39.7143C40.9786 64 42 62.9786 42 61.7143V54.8571H48.8571C50.1214 54.8571 51.1429 53.8357 51.1429 52.5714V5.71429C51.1429 4.45 50.1214 3.42857 48.8571 3.42857ZM36.8571 30.1429H26.1429V19.4286H26.1571L36.8571 30.1286V30.1429ZM46 49.7143H42V28L28.2857 14.2857H15.1429V8.57143H20V10.8571C20 11.1714 20.2571 11.4286 20.5714 11.4286H24.5714C24.8857 11.4286 25.1429 11.1714 25.1429 10.8571V8.57143H36V10.8571C36 11.1714 36.2571 11.4286 36.5714 11.4286H40.5714C40.8857 11.4286 41.1429 11.1714 41.1429 10.8571V8.57143H46V49.7143Z" fill="#FE6B12"/>
</svg>
