<svg width="64" height="64" viewBox="0 0 64 64" fill="none" xmlns="http://www.w3.org/2000/svg">
<path d="M53.4125 18.0438C53.7875 18.4188 54 18.925 54 19.4562V58C54 59.1063 53.1063 60 52 60H12C10.8937 60 10 59.1063 10 58V6C10 4.89375 10.8937 4 12 4H38.5438C39.075 4 39.5875 4.2125 39.9625 4.5875L53.4125 18.0438ZM49.3875 20.375L37.625 8.6125V20.375H49.3875ZM32 49C32.663 49 33.2989 48.7366 33.7678 48.2678C34.2366 47.7989 34.5 47.163 34.5 46.5C34.5 45.837 34.2366 45.2011 33.7678 44.7322C33.2989 44.2634 32.663 44 32 44C31.337 44 30.7011 44.2634 30.2322 44.7322C29.7634 45.2011 29.5 45.837 29.5 46.5C29.5 47.163 29.7634 47.7989 30.2322 48.2678C30.7011 48.7366 31.337 49 32 49ZM34 39.5V28C34 27.8674 33.9473 27.7402 33.8536 27.6464C33.7598 27.5527 33.6326 27.5 33.5 27.5H30.5C30.3674 27.5 30.2402 27.5527 30.1464 27.6464C30.0527 27.7402 30 27.8674 30 28V39.5C30 39.6326 30.0527 39.7598 30.1464 39.8536C30.2402 39.9473 30.3674 40 30.5 40H33.5C33.6326 40 33.7598 39.9473 33.8536 39.8536C33.9473 39.7598 34 39.6326 34 39.5Z" fill="#20374F"/>
</svg>
